<mxfile host="app.diagrams.net" modified="2021-08-13T09:09:48.956Z" agent="5.0 (Macintosh; Intel Mac OS X 10_15_7) AppleWebKit/537.36 (KHTML, like Gecko) Chrome/92.0.4515.131 Safari/537.36" etag="Xvtzy3mRrU3Tjf0HHQTz" version="14.9.6" type="github">
  <diagram id="hEiuyTPPN76kWOtJ54BL" name="Page-1">
    <mxGraphModel dx="946" dy="508" grid="0" gridSize="10" guides="1" tooltips="1" connect="1" arrows="1" fold="1" page="1" pageScale="1" pageWidth="827" pageHeight="1169" math="0" shadow="0">
      <root>
        <mxCell id="0" />
        <mxCell id="1" parent="0" />
        <mxCell id="nKvDLpPWKbtvSYLXLFWX-7" value="" style="ellipse;whiteSpace=wrap;html=1;aspect=fixed;" vertex="1" parent="1">
          <mxGeometry x="210" y="70" width="380" height="380" as="geometry" />
        </mxCell>
        <mxCell id="nKvDLpPWKbtvSYLXLFWX-9" value="" style="ellipse;whiteSpace=wrap;html=1;aspect=fixed;" vertex="1" parent="1">
          <mxGeometry x="285" y="145" width="230" height="230" as="geometry" />
        </mxCell>
        <mxCell id="nKvDLpPWKbtvSYLXLFWX-8" value="" style="endArrow=none;html=1;exitX=0;exitY=0.5;exitDx=0;exitDy=0;entryX=1;entryY=0.5;entryDx=0;entryDy=0;" edge="1" parent="1" source="nKvDLpPWKbtvSYLXLFWX-7" target="nKvDLpPWKbtvSYLXLFWX-7">
          <mxGeometry width="50" height="50" relative="1" as="geometry">
            <mxPoint x="390" y="290" as="sourcePoint" />
            <mxPoint x="440" y="240" as="targetPoint" />
          </mxGeometry>
        </mxCell>
        <mxCell id="nKvDLpPWKbtvSYLXLFWX-10" value="" style="endArrow=none;html=1;entryX=0.5;entryY=1;entryDx=0;entryDy=0;" edge="1" parent="1" target="nKvDLpPWKbtvSYLXLFWX-9">
          <mxGeometry width="50" height="50" relative="1" as="geometry">
            <mxPoint x="400" y="260" as="sourcePoint" />
            <mxPoint x="400" y="370" as="targetPoint" />
          </mxGeometry>
        </mxCell>
        <mxCell id="nKvDLpPWKbtvSYLXLFWX-11" value="" style="ellipse;whiteSpace=wrap;html=1;aspect=fixed;" vertex="1" parent="1">
          <mxGeometry x="357.5" y="217.5" width="85" height="85" as="geometry" />
        </mxCell>
        <mxCell id="nKvDLpPWKbtvSYLXLFWX-12" value="产品" style="text;html=1;strokeColor=none;fillColor=none;align=center;verticalAlign=middle;whiteSpace=wrap;rounded=0;" vertex="1" parent="1">
          <mxGeometry x="380" y="250" width="40" height="20" as="geometry" />
        </mxCell>
        <mxCell id="nKvDLpPWKbtvSYLXLFWX-13" value="行业方案" style="text;html=1;strokeColor=none;fillColor=none;align=center;verticalAlign=middle;whiteSpace=wrap;rounded=0;" vertex="1" parent="1">
          <mxGeometry x="317.5" y="302.5" width="52.5" height="20" as="geometry" />
        </mxCell>
        <mxCell id="nKvDLpPWKbtvSYLXLFWX-14" value="场景方案" style="text;html=1;strokeColor=none;fillColor=none;align=center;verticalAlign=middle;whiteSpace=wrap;rounded=0;" vertex="1" parent="1">
          <mxGeometry x="430" y="302.5" width="52.5" height="20" as="geometry" />
        </mxCell>
        <mxCell id="nKvDLpPWKbtvSYLXLFWX-15" value="市场推广" style="text;html=1;strokeColor=none;fillColor=none;align=center;verticalAlign=middle;whiteSpace=wrap;rounded=0;" vertex="1" parent="1">
          <mxGeometry x="373.75" y="170" width="52.5" height="20" as="geometry" />
        </mxCell>
        <mxCell id="nKvDLpPWKbtvSYLXLFWX-16" value="客户、项目" style="text;html=1;strokeColor=none;fillColor=none;align=center;verticalAlign=middle;whiteSpace=wrap;rounded=0;" vertex="1" parent="1">
          <mxGeometry x="366.88" y="100" width="66.25" height="20" as="geometry" />
        </mxCell>
        <mxCell id="nKvDLpPWKbtvSYLXLFWX-17" value="合作伙伴" style="text;html=1;strokeColor=none;fillColor=none;align=center;verticalAlign=middle;whiteSpace=wrap;rounded=0;" vertex="1" parent="1">
          <mxGeometry x="366.87" y="400" width="66.25" height="20" as="geometry" />
        </mxCell>
      </root>
    </mxGraphModel>
  </diagram>
</mxfile>
